<svg width="32" height="32" viewBox="0 0 32 32" fill="none" xmlns="http://www.w3.org/2000/svg">
<g clip-path="url(#clip0_422_189)">
<path d="M26.4 0H5.6C2.50721 0 0 2.50721 0 5.6V26.4C0 29.4928 2.50721 32 5.6 32H26.4C29.4928 32 32 29.4928 32 26.4V5.6C32 2.50721 29.4928 0 26.4 0Z" fill="#007FB5"/>
<path d="M9.01 11.77H4.495V28.13H9.01V11.77Z" fill="white"/>
<path d="M24.1 11.77C20.77 10.5 18.36 12.65 17.33 13.85V11.77H12.83V28.13H17.33V19.5C17.3043 18.4062 17.704 17.3451 18.445 16.54C18.6564 16.2911 18.917 16.0884 19.2104 15.9448C19.5038 15.8011 19.8236 15.7195 20.15 15.705C20.5149 15.698 20.8776 15.7648 21.2161 15.9014C21.5546 16.0381 21.8621 16.2417 22.12 16.5C22.6792 17.0845 22.9847 17.8663 22.97 18.675V28.13H28.05V18C28.05 18 28.615 13.46 24.1 11.77Z" fill="white"/>
<path d="M6.75005 9.51C8.3075 9.51 9.57005 8.24744 9.57005 6.69C9.57005 5.13255 8.3075 3.87 6.75005 3.87C5.19261 3.87 3.93005 5.13255 3.93005 6.69C3.93005 8.24744 5.19261 9.51 6.75005 9.51Z" fill="white"/>
</g>
<defs>
<clipPath id="clip0_422_189">
<rect width="32" height="32" fill="white"/>
</clipPath>
</defs>
</svg>
