<svg width="83" height="26" viewBox="0 0 83 26" fill="none" xmlns="http://www.w3.org/2000/svg">
<path d="M24.3204 -0.00985718V0.696636C23.6139 0.837934 23.0722 1.08521 22.6954 1.43845C22.3422 1.7917 22.1067 2.34512 21.9889 3.09871C21.8712 3.82876 21.8123 4.86495 21.8123 6.20729V25C21.4591 24.9529 21.0705 24.9294 20.6466 24.9294C20.2463 24.9294 19.8106 24.9529 19.3396 25L3.69076 7.90287V18.0764C3.69076 19.6542 3.74963 20.867 3.86738 21.7148C4.00868 22.5391 4.3266 23.1396 4.82115 23.5164C5.33924 23.8696 6.15171 24.1287 7.25855 24.2935V25C6.78756 24.9529 6.17526 24.9294 5.42167 24.9294C4.66807 24.9058 3.96158 24.894 3.30219 24.894C2.78409 24.894 2.25422 24.9058 1.71258 24.9294C1.17093 24.9294 0.723486 24.9529 0.370239 25V24.2935C1.10028 24.1287 1.64193 23.8814 1.99517 23.5517C2.34842 23.1985 2.58392 22.645 2.70167 21.8914C2.81942 21.1378 2.87829 20.1017 2.87829 18.7829V3.73456C2.87829 2.86321 2.81942 2.22737 2.70167 1.82703C2.58392 1.40313 2.33665 1.12053 1.95985 0.979234C1.6066 0.814385 1.07673 0.720185 0.370239 0.696636V-0.00985718C0.723486 0.0136923 1.17093 0.0372418 1.71258 0.0607913C2.25422 0.0843408 2.78409 0.0961155 3.30219 0.0961155C3.89093 0.0961155 4.4679 0.0843408 5.0331 0.0607913C5.59829 0.0372418 6.10461 0.0136923 6.55206 -0.00985718L20.9999 15.2504V6.91378C20.9999 5.33594 20.9292 4.1349 20.7879 3.31066C20.6702 2.46287 20.364 1.85057 19.8695 1.47378C19.3749 1.09698 18.5624 0.837934 17.4321 0.696636V-0.00985718C17.9031 0.0136923 18.5154 0.0372418 19.2689 0.0607913C20.0225 0.0843408 20.729 0.0961155 21.3884 0.0961155C21.9301 0.0961155 22.4599 0.0843408 22.978 0.0607913C23.5197 0.0372418 23.9671 0.0136923 24.3204 -0.00985718Z" fill="url(#paint0_radial_411_214)"/>
<path d="M26.1722 -0.00985718C26.8551 0.0136923 27.75 0.0372418 28.8568 0.0607913C29.9872 0.0843408 31.1176 0.0961155 32.248 0.0961155C33.4255 0.0961155 34.5559 0.0843408 35.6392 0.0607913C36.7225 0.0372418 37.4878 0.025467 37.9353 0.025467C40.3374 0.025467 42.3155 0.24919 43.8698 0.696636C45.4477 1.14408 46.6251 1.82702 47.4023 2.74547C48.1794 3.64036 48.568 4.78252 48.568 6.17196C48.568 7.0433 48.3914 7.89109 48.0381 8.71534C47.6849 9.53958 47.0844 10.2932 46.2366 10.9761C45.3888 11.6355 44.2231 12.1654 42.7394 12.5657C41.2793 12.9425 39.4189 13.1309 37.1581 13.1309H33.767V12.4244H36.8049C38.0059 12.4244 38.9126 12.1654 39.5249 11.6473C40.1607 11.1056 40.5846 10.3991 40.7966 9.5278C41.0321 8.63291 41.1498 7.64382 41.1498 6.56053C41.1498 4.7001 40.8908 3.26356 40.3727 2.25092C39.8781 1.21473 39.0068 0.696636 37.7587 0.696636C36.958 0.696636 36.4399 0.896809 36.2044 1.29716C35.9689 1.6975 35.8511 2.50997 35.8511 3.73456V21.2556C35.8511 22.1034 35.91 22.7392 36.0277 23.1631C36.169 23.587 36.4163 23.8696 36.7696 24.0109C37.1228 24.1522 37.6527 24.2464 38.3592 24.2935V25C37.6762 24.9529 36.7931 24.9294 35.7098 24.9294C34.6501 24.9058 33.5668 24.894 32.4599 24.894C31.1883 24.894 29.9872 24.9058 28.8568 24.9294C27.75 24.9294 26.8551 24.9529 26.1722 25V24.2935C26.9022 24.2464 27.4438 24.1522 27.7971 24.0109C28.1503 23.8696 28.3858 23.587 28.5036 23.1631C28.6213 22.7392 28.6802 22.1034 28.6802 21.2556V3.73456C28.6802 2.86321 28.6213 2.22737 28.5036 1.82703C28.3858 1.40313 28.1386 1.12053 27.7618 0.979234C27.4085 0.814385 26.8786 0.720185 26.1722 0.696636V-0.00985718ZM33.555 12.5304C34.4028 12.554 35.2035 12.6011 35.9571 12.6717C36.7107 12.7424 37.4054 12.813 38.0412 12.8836C38.6771 12.9307 39.2187 12.9661 39.6662 12.9896C42.186 13.1074 44.07 13.543 45.3181 14.2966C46.5898 15.0502 47.367 16.1571 47.6496 17.6172L48.3914 21.2909C48.5798 22.1623 48.7917 22.7628 49.0272 23.0925C49.2627 23.4222 49.5806 23.587 49.981 23.587C50.2165 23.587 50.4167 23.5517 50.5815 23.4811C50.7464 23.4104 50.9112 23.2927 51.0761 23.1278L51.5353 23.587C50.8052 24.3171 50.0045 24.8116 49.1332 25.0707C48.2854 25.3533 47.3199 25.4946 46.2366 25.4946C44.7058 25.4946 43.4695 25.2237 42.5275 24.6821C41.5855 24.1169 41.0085 23.116 40.7966 21.6795L40.2667 18.147C40.1254 17.1815 39.9488 16.3219 39.7368 15.5683C39.5249 14.8147 39.2423 14.226 38.889 13.8021C38.5358 13.3546 38.053 13.1309 37.4407 13.1309H33.6257L33.555 12.5304Z" fill="url(#paint1_radial_411_214)"/>
<path d="M74.5211 -0.00985718C74.4269 1.37958 74.3563 2.72192 74.3092 4.01715C74.2857 5.31239 74.2739 6.30148 74.2739 6.98443C74.2739 7.47897 74.2857 7.94997 74.3092 8.39742C74.3328 8.84486 74.3563 9.22166 74.3799 9.5278H73.5674C73.0257 7.31413 72.3663 5.57144 71.5892 4.29975C70.8356 3.02806 70.0231 2.13317 69.1518 1.61508C68.304 1.07343 67.4562 0.802608 66.6084 0.802608H66.5731V21.0083C66.5731 21.9739 66.6673 22.6921 66.8557 23.1631C67.0676 23.6341 67.4562 23.9403 68.0214 24.0816C68.5866 24.2229 69.4109 24.2935 70.4941 24.2935V25C69.6699 24.9765 68.5513 24.9529 67.1383 24.9294C65.7489 24.9058 64.2888 24.894 62.758 24.894C61.2979 24.894 59.9203 24.9058 58.625 24.9294C57.3298 24.9529 56.2818 24.9765 55.4811 25V24.2935C56.5644 24.2935 57.3887 24.2229 57.9539 24.0816C58.5191 23.9403 58.8959 23.6341 59.0843 23.1631C59.2962 22.6921 59.4022 21.9739 59.4022 21.0083V0.802608H59.3669C58.5191 0.802608 57.6595 1.07343 56.7882 1.61508C55.9404 2.13317 55.1397 3.02806 54.3861 4.29975C53.6325 5.54789 52.9731 7.29057 52.4079 9.5278H51.5954C51.6425 9.22166 51.6661 8.84486 51.6661 8.39742C51.6896 7.94997 51.7014 7.47897 51.7014 6.98443C51.7014 6.30148 51.6779 5.31239 51.6308 4.01715C51.6072 2.72192 51.5483 1.37958 51.4541 -0.00985718C52.5845 0.0136923 53.8327 0.0372418 55.1986 0.0607913C56.5644 0.0843408 57.9303 0.0961155 59.2962 0.0961155C60.6621 0.0961155 61.8985 0.0961155 63.0053 0.0961155C64.1121 0.0961155 65.3485 0.0961155 66.7144 0.0961155C68.0803 0.0961155 69.4462 0.0843408 70.8121 0.0607913C72.1779 0.0372418 73.4143 0.0136923 74.5211 -0.00985718Z" fill="url(#paint2_radial_411_214)"/>
<path d="M78.7008 19.4187C79.8076 19.4187 80.6672 19.6778 81.2795 20.1959C81.8918 20.6904 82.1979 21.444 82.1979 22.4566C82.1979 23.4693 81.8918 24.2346 81.2795 24.7527C80.6672 25.2473 79.8076 25.4946 78.7008 25.4946C77.5704 25.4946 76.6991 25.2473 76.0868 24.7527C75.498 24.2346 75.2036 23.4693 75.2036 22.4566C75.2036 21.444 75.498 20.6904 76.0868 20.1959C76.6991 19.6778 77.5704 19.4187 78.7008 19.4187Z" fill="url(#paint3_radial_411_214)"/>
<defs>
<radialGradient id="paint0_radial_411_214" cx="0" cy="0" r="1" gradientUnits="userSpaceOnUse" gradientTransform="translate(26.3214 0.116278) rotate(23.2875) scale(71.8829 77.1954)">
<stop stop-color="#7597D9"/>
<stop offset="1" stop-color="#6D6FA0" stop-opacity="0.1"/>
</radialGradient>
<radialGradient id="paint1_radial_411_214" cx="0" cy="0" r="1" gradientUnits="userSpaceOnUse" gradientTransform="translate(26.3214 0.116278) rotate(23.2875) scale(71.8829 77.1954)">
<stop stop-color="#7597D9"/>
<stop offset="1" stop-color="#6D6FA0" stop-opacity="0.1"/>
</radialGradient>
<radialGradient id="paint2_radial_411_214" cx="0" cy="0" r="1" gradientUnits="userSpaceOnUse" gradientTransform="translate(26.3214 0.116278) rotate(23.2875) scale(71.8829 77.1954)">
<stop stop-color="#7597D9"/>
<stop offset="1" stop-color="#6D6FA0" stop-opacity="0.1"/>
</radialGradient>
<radialGradient id="paint3_radial_411_214" cx="0" cy="0" r="1" gradientUnits="userSpaceOnUse" gradientTransform="translate(26.3214 0.116278) rotate(23.2875) scale(71.8829 77.1954)">
<stop stop-color="#7597D9"/>
<stop offset="1" stop-color="#6D6FA0" stop-opacity="0.1"/>
</radialGradient>
</defs>
</svg>
